# xmcd
#
# Track frame offsets:
#	150
#	23826
#	39896
#	54529
#	73488
#	90945
#	112792
#	131964
#	151814
#	176803
#	195567
#	214127
#
# Disc length: 3171 seconds
#
# Revision: 0
# Processed by: cddbd v1.5.2PL0 Copyright (c) Steve Scherf et al.
# Submitted via: AudioConverter v7.0 Copyright (c) D.R. Software
#
DISCID=a00c610c
DTITLE=BISCUIT MILLER - BLUES WITH A SMILE
DYEAR=2010
DGENRE=Blues
TTITLE0=BELLY UP SOME BLUES
TTITLE1=SLEEPIN IN THE DOG HOUSE
TTITLE2=BUTTER MY BISCUITS
TTITLE3=WALK WITH YOU BABE
TTITLE4=BLACK EYED PEAS AND CORNBREAD
TTITLE5=BLOW A KISS
TTITLE6=BONEHEADS
TTITLE7=WILLIE D
TTITLE8=NEVER SEEN IT COMIN'
TTITLE9=CALL HIM DR. LOVE
TTITLE10=SUMMERTIME BLUES
TTITLE11=SING FOR THE PEOPLE
EXTD=
EXTT0=BELLY UP SOME BLUES
EXTT1=SLEEPIN IN THE DOG HOUSE
EXTT2=BUTTER MY BISCUITS
EXTT3=WALK WITH YOU BABE
EXTT4=BLACK EYED PEAS AND CORNBREAD
EXTT5=BLOW A KISS
EXTT6=BONEHEADS
EXTT7=WILLIE D
EXTT8=NEVER SEEN IT COMIN'
EXTT9=CALL HIM DR. LOVE
EXTT10=SUMMERTIME BLUES
EXTT11=SING FOR THE PEOPLE
PLAYORDER=
